<svg xmlns="http://www.w3.org/2000/svg" xmlns:xlink="http://www.w3.org/1999/xlink" width="1080" zoomAndPan="magnify" viewBox="0 0 810 809.999993" height="1080" preserveAspectRatio="xMidYMid meet" version="1.0"><defs><clipPath id="d488842162"><path d="M 94.5625 94.5625 L 715.5625 94.5625 L 715.5625 715.5625 L 94.5625 715.5625 Z M 94.5625 94.5625 " clip-rule="nonzero"/></clipPath></defs><g clip-path="url(#d488842162)"><path fill="#ffffff" d="M 405.0625 94.5625 C 233.851562 94.5625 94.5625 233.851562 94.5625 405.0625 C 94.5625 576.269531 233.851562 715.5625 405.0625 715.5625 C 576.269531 715.5625 715.5625 576.269531 715.5625 405.0625 C 715.5625 233.851562 576.269531 94.5625 405.0625 94.5625 Z M 601.519531 588.679688 C 561.019531 519.496094 486.765625 476.144531 405.050781 476.144531 C 323.351562 476.144531 249.105469 519.496094 208.601562 588.6875 C 163.59375 540.5625 135.960938 475.996094 135.960938 405.0625 C 135.960938 256.679688 256.679688 135.960938 405.0625 135.960938 C 553.445312 135.960938 674.160156 256.679688 674.160156 405.0625 C 674.160156 475.996094 646.527344 540.5625 601.519531 588.679688 Z M 601.519531 588.679688 " fill-opacity="1" fill-rule="nonzero"/></g><path fill="#ffffff" d="M 405.0625 186.351562 C 335.269531 186.351562 278.484375 243.128906 278.484375 312.925781 C 278.484375 382.71875 335.269531 439.507812 405.0625 439.507812 C 474.855469 439.507812 531.640625 382.71875 531.640625 312.925781 C 531.640625 243.128906 474.855469 186.351562 405.0625 186.351562 Z M 405.0625 186.351562 " fill-opacity="1" fill-rule="nonzero"/></svg>